<svg xmlns:xlink="http://www.w3.org/1999/xlink" xmlns="http://www.w3.org/2000/svg" viewBox="0 0 500 500" version="1.1" id="svg_null" width="500" height="500"><g id="root" stroke="none" stroke-width="1" fill="none" fill-rule="evenodd"><rect id="background.primary" fill="#59606D" x="0" y="0" width="500" height="400"/><g id="shape" transform="translate(158.000000, 90.000000)" fill="#FFFFFF"><path d="M54 112l-26 0c-15.464 0 -28 -12.536 -28 -28c0 -15.464 12.536 -28 28 -28l26 0c-15.464 0 -28 -12.536 -28 -28c0 -15.464 12.536 -28 28 -28l37 0c15.464 0 28 12.536 28 28c0 15.464 -12.536 28 -28 28l9 0c15.464 0 28 12.536 28 28c0 15.464 -12.536 28 -28 28l-9 0c15.464 0 28 12.536 28 28c0 15.464 -12.536 28 -28 28l-37 0c-15.464 0 -28 -12.536 -28 -28c0 -15.464 12.536 -28 28 -28z" opacity=".4" fill="#FFFFFF"/><path d="M73 112l-17 0c-15.464 0 -28 -12.536 -28 -28c0 -15.464 12.536 -28 28 -28l17 0c-15.464 0 -28 -12.536 -28 -28c0 -15.464 12.536 -28 28 -28l37 0c15.464 0 28 12.536 28 28c0 15.464 -12.536 28 -28 28l18 0c15.464 0 28 12.536 28 28c0 15.464 -12.536 28 -28 28l-18 0c15.464 0 28 12.536 28 28c0 15.464 -12.536 28 -28 28l-37 0c-15.464 0 -28 -12.536 -28 -28c0 -15.464 12.536 -28 28 -28z" opacity=".5" fill="#FFFFFF"/><path d="M92 112l-8 0c-15.464 0 -28 -12.536 -28 -28c0 -15.464 12.536 -28 28 -28l8 0c-15.464 0 -28 -12.536 -28 -28c0 -15.464 12.536 -28 28 -28l37 0c15.464 0 28 12.536 28 28c0 15.464 -12.536 28 -28 28l27 0c15.464 0 28 12.536 28 28c0 15.464 -12.536 28 -28 28l-27 0c15.464 0 28 12.536 28 28c0 15.464 -12.536 28 -28 28l-37 0c-15.464 0 -28 -12.536 -28 -28c0 -15.464 12.536 -28 28 -28z" opacity=".6" fill="#FFFFFF"/></g></g></svg>